<svg xmlns="http://www.w3.org/2000/svg" width="35" height="34">
    <path fill-rule="evenodd" fill="#DADADA" d="M17.46 34C8.222 34 .734 26.447.734 17.132.734 7.815 8.222.264 17.46.264c9.237 0 16.726 7.551 16.726 16.868C34.186 26.447 26.697 34 17.46 34zm0-29.519c-6.928 0-12.544 5.663-12.544 12.651 0 6.986 5.616 12.651 12.544 12.651 6.928 0 12.544-5.665 12.544-12.651 0-6.988-5.616-12.651-12.544-12.651zm5.229 12.689-1.055-.008.014-2.15h-2.132v-1.066h2.102v-2.105l1.09-.013.013 2.17h2.054v1.016h-2.086v2.156zm-5.79-4.721c.784.304 1.201 1.225 1.201 2.17 0 .793-.437 1.476-1.052 1.962-.601.473-.715.671-.715 1.074 0 .344.643.928.981 1.168.984.702 1.302 1.354 1.302 2.442 0 1.357-1.302 2.706-3.661 2.706-2.068 0-3.813-.848-3.813-2.206 0-1.377 1.565-2.732 3.634-2.732.225 0 .458.02.672.02-.283-.278-.472-.567-.472-.986 0-.249.044-.541.155-.753-.113.008-.228.01-.347.01-1.698 0-2.836-1.219-2.836-2.729 0-1.478 1.571-2.754 3.241-2.754h3.725l-.834.608h-1.181zm-1.703 6.96c-1.429-.016-2.71.878-2.71 1.953 0 1.096 1.032 2.009 2.462 2.009 2.009 0 2.71-.856 2.71-1.953a1.72 1.72 0 0 0-.045-.387c-.158-.621-.714-.929-1.49-1.473a3.077 3.077 0 0 0-.927-.149zm1.565-4.716c-.166-1.271-1.078-2.291-2.037-2.32-.96-.029-1.603.944-1.438 2.216.166 1.27 1.078 2.323 2.038 2.352.959.029 1.602-.977 1.437-2.248z"/>
</svg>
