<svg xmlns="http://www.w3.org/2000/svg" width="34" height="34">
    <path fill-rule="evenodd" fill="#DADADA" d="M17.274 34C8.037 34 .549 26.447.549 17.132.549 7.815 8.037.264 17.274.264 26.511.264 34 7.815 34 17.132 34 26.447 26.511 34 17.274 34zm0-29.519c-6.928 0-12.544 5.663-12.544 12.651 0 6.986 5.616 12.651 12.544 12.651 6.928 0 12.545-5.665 12.545-12.651 0-6.988-5.617-12.651-12.545-12.651zm6.769 15.534a7.6 7.6 0 0 1-.677 1.26 7.73 7.73 0 0 1-.897 1.096 7.395 7.395 0 0 1-2.335 1.587 7.286 7.286 0 0 1-2.86.582 7.25 7.25 0 0 1-1.479-.151 7.25 7.25 0 0 1-2.63-1.115 7.554 7.554 0 0 1-1.086-.903 7.454 7.454 0 0 1 1.086-11.383 7.325 7.325 0 0 1 4.109-1.265c.498 0 .995.05 1.48.15.472.098.935.243 1.38.432a7.39 7.39 0 0 1 1.249.683 7.513 7.513 0 0 1 1.983 2c.264.396.492.82.677 1.259a7.456 7.456 0 0 1 .577 2.885 7.461 7.461 0 0 1-.577 2.883zm-3.287 2.227a6.25 6.25 0 0 0 1.617-1.643 6.22 6.22 0 0 0 .926-2.218c.018-.094.027-.19.042-.284a6.096 6.096 0 0 0-.198-.054l-.037-.01a9.023 9.023 0 0 0-.693-.143l-.004-.001a8.937 8.937 0 0 0-2.852-.025 28.437 28.437 0 0 1 1.199 4.378zm-6.92.032a6.106 6.106 0 0 0 5.831.571c.012-.004.023-.011.035-.016a26.94 26.94 0 0 0-1.32-4.675l-.04.013c-.374.131-.717.279-1.042.434-.046.022-.095.043-.14.066a9.525 9.525 0 0 0-.983.559 9.194 9.194 0 0 0-.696.495c-.034.026-.064.052-.097.079a8.745 8.745 0 0 0-.59.517v.001c-.179.173-.333.34-.474.502l-.06.068c-.128.15-.239.291-.336.422l-.053.073c-.089.124-.167.24-.228.337l-.028.047a4.78 4.78 0 0 0-.138.236c.118.093.236.187.359.271zm-2.701-5.342c-.002.067-.01.133-.01.2 0 .421.043.841.125 1.249a6.287 6.287 0 0 0 .925 2.218c.151.223.334.421.511.624.042-.067.105-.163.178-.27l.036-.054a10.56 10.56 0 0 1 .734-.936l.068-.075c.159-.178.331-.362.526-.551.189-.184.4-.37.623-.554l.101-.084a9.292 9.292 0 0 1 .845-.604 8.95 8.95 0 0 1 .813-.462c.043-.021.088-.04.132-.061.307-.145.626-.281.967-.392.08-.026.161-.046.242-.069a21.626 21.626 0 0 0-.507-1.083c-2.538.765-4.988.888-5.977.902a13.76 13.76 0 0 1-.332.002zm3.541-5.415a6.066 6.066 0 0 0-.84.472 6.2 6.2 0 0 0-2.227 2.728 6.097 6.097 0 0 0-.345 1.11c.065 0 .155 0 .266-.003h.008c.225-.005.538-.016.919-.041h.003c.959-.064 2.35-.218 3.888-.583l.001-.001c.19-.044.383-.093.577-.145a38.413 38.413 0 0 0-2.25-3.537zm6.036.472a6.13 6.13 0 0 0-4.678-.933c-.052.01-.103.028-.154.04a32.57 32.57 0 0 1 2.255 3.569c.245-.093.475-.192.689-.292l.012-.006c1.506-.712 2.259-1.566 2.492-1.866-.2-.177-.396-.362-.616-.512zm2.587 3.892a6.192 6.192 0 0 0-.926-2.217c-.102-.153-.233-.284-.349-.427-.252.318-1.082 1.226-2.651 2.024l-.05.024c-.221.111-.453.218-.704.322.148.305.291.614.423.927.047.111.086.218.131.328.223-.028.445-.048.665-.061l.111-.006c.189-.01.373-.016.556-.018l.093-.001c.209 0 .413.004.609.012l.043.002a12.909 12.909 0 0 1 .629.042c.16.014.313.029.455.045l.029.003c.153.018.29.037.419.055l.091.014c.096.015.182.028.259.042l.064.01c.091.016.166.03.223.042a6.451 6.451 0 0 0-.12-1.162z"/>
</svg>
