<svg xmlns="http://www.w3.org/2000/svg" width="35" height="34">
    <path fill-rule="evenodd" fill="#DADADA" d="M17.54 33.736C8.302 33.736.814 26.184.814 16.868.814 7.552 8.302 0 17.54 0c9.237 0 16.726 7.552 16.726 16.868 0 9.316-7.489 16.868-16.726 16.868zm0-29.519c-6.928 0-12.545 5.664-12.545 12.651s5.617 12.651 12.545 12.651c6.927 0 12.544-5.664 12.544-12.651S24.467 4.217 17.54 4.217zm.483 9.309-.003 1.192h2.099l-.453 2.392h-1.583l.008 6.356-2.647.008-.008-6.347-1.567-.017v-2.4l1.584-.009.048-1.31c0-1.802.617-2.931 2.722-2.931l1.934.008.009 2.129-1.024.074c-.82 0-1.119.28-1.119.855z"/>
</svg>
