<svg
        xmlns="http://www.w3.org/2000/svg"
        width="46px" height="46px">
    <path fill-rule="evenodd" fill="rgb(115, 115, 115)"
          d="M45.082,43.994 L43.988,45.086 C42.780,46.293 40.821,46.293 39.613,45.086 L30.865,36.349 C29.850,35.336 29.740,33.819 30.428,32.636 L25.645,27.860 C23.073,29.766 19.899,30.908 16.449,30.908 C7.908,30.908 0.983,23.992 0.983,15.462 C0.983,6.931 7.908,0.016 16.449,0.016 C24.991,0.016 31.915,6.931 31.915,15.462 C31.915,19.433 30.402,23.042 27.936,25.779 L32.615,30.452 C33.799,29.764 35.319,29.875 36.333,30.888 L45.082,39.626 C46.290,40.832 46.290,42.788 45.082,43.994 ZM28.017,15.397 C28.017,8.1000 22.823,3.813 16.417,3.813 C14.633,3.813 12.963,4.248 11.452,4.967 C12.260,5.795 13.477,7.033 13.542,7.033 C12.285,7.033 8.171,11.142 8.171,12.494 C8.171,12.428 6.861,11.187 6.004,10.382 C5.267,11.905 4.817,13.592 4.817,15.397 C4.817,21.795 10.011,26.982 16.417,26.982 C22.823,26.982 28.017,21.795 28.017,15.397 Z"/>
</svg>
