<svg xmlns="http://www.w3.org/2000/svg" width="35" height="34">
    <path fill-rule="evenodd" fill="#DADADA" d="M17.646 34C8.408 34 .92 26.447.92 17.132.92 7.815 8.408.264 17.646.264c9.236 0 16.726 7.551 16.726 16.868 0 9.315-7.49 16.868-16.726 16.868zm0-29.519c-6.928 0-12.545 5.663-12.545 12.651 0 6.986 5.617 12.651 12.545 12.651 6.927 0 12.544-5.665 12.544-12.651 0-6.988-5.617-12.651-12.544-12.651zm1.084 16.24c-.872 0-1.691-.475-1.972-1.014 0 0-.469 1.875-.567 2.237-.35 1.279-1.378 2.559-1.457 2.665-.057.073-.18.05-.193-.047-.022-.163-.284-1.777.025-3.094l1.038-4.436s-.258-.519-.258-1.288c0-1.206.694-2.107 1.557-2.107.734 0 1.089.556 1.089 1.222 0 .745-.471 1.857-.713 2.888-.203.865.43 1.569 1.274 1.569 1.529 0 2.559-1.981 2.559-4.328 0-1.785-1.191-3.12-3.358-3.12-2.448 0-3.975 1.842-3.975 3.899 0 .709.208 1.21.533 1.596.149.178.17.25.116.454-.039.15-.127.51-.165.653-.054.207-.219.28-.404.204-1.127-.464-1.653-1.71-1.653-3.11 0-2.312 1.934-5.085 5.769-5.085 3.082 0 5.11 2.248 5.11 4.663 0 3.194-1.76 5.579-4.355 5.579z"/>
</svg>
