<svg xmlns="http://www.w3.org/2000/svg" width="34" height="34">
    <path fill-rule="evenodd" fill="#DADADA" d="M16.832 34C7.594 34 .106 26.447.106 17.132.106 7.815 7.594.264 16.832.264c9.236 0 16.725 7.551 16.725 16.868C33.557 26.447 26.068 34 16.832 34zm0-29.519c-6.928 0-12.545 5.663-12.545 12.651 0 6.986 5.617 12.651 12.545 12.651 6.927 0 12.544-5.665 12.544-12.651 0-6.988-5.617-12.651-12.544-12.651zm-4.287 9.008v-1.98c5.629 0 10.192 4.604 10.192 10.279h-1.964c0-4.576-3.689-8.299-8.228-8.299zm6.624 8.299h-1.964c0-2.592-2.091-4.701-4.66-4.701v-1.98c3.66 0 6.624 2.993 6.624 6.681zm-5.423-2.423c.664 0 1.202.542 1.202 1.211 0 .67-.538 1.212-1.202 1.212a1.206 1.206 0 0 1-1.201-1.212c0-.669.538-1.211 1.201-1.211z"/>
</svg>
