<svg xmlns="http://www.w3.org/2000/svg" width="34" height="34">
    <path fill-rule="evenodd" fill="#DADADA" d="M16.726 33.736C7.488 33.736 0 26.184 0 16.868 0 7.552 7.488 0 16.726 0c9.236 0 16.725 7.552 16.725 16.868 0 9.316-7.489 16.868-16.725 16.868zm0-29.519c-6.928 0-12.545 5.664-12.545 12.651s5.617 12.651 12.545 12.651c6.927 0 12.544-5.664 12.544-12.651S23.653 4.217 16.726 4.217zm5.14 10.429c.005.116.007.233.007.351 0 3.58-2.702 7.71-7.645 7.71a7.562 7.562 0 0 1-4.119-1.218 5.36 5.36 0 0 0 3.978-1.122 2.693 2.693 0 0 1-2.51-1.882 2.647 2.647 0 0 0 1.214-.047 2.706 2.706 0 0 1-2.155-2.657v-.034c.362.203.776.325 1.217.339a2.715 2.715 0 0 1-1.196-2.255c0-.497.133-.963.364-1.363a7.603 7.603 0 0 0 5.538 2.831 2.785 2.785 0 0 1-.069-.617c0-1.496 1.203-2.71 2.687-2.71.773 0 1.471.33 1.961.856a5.35 5.35 0 0 0 1.706-.657 2.714 2.714 0 0 1-1.181 1.499 5.324 5.324 0 0 0 1.543-.427 5.486 5.486 0 0 1-1.34 1.403z"/>
</svg>
