<svg xmlns="http://www.w3.org/2000/svg" width="33" height="42">
    <path fill-rule="evenodd" fill="#FFF" d="M32.546 10.358 26.527 20.83a3.432 3.432 0 0 1-4.699 1.265l-1.49-.864 1.72-2.992a1.717 1.717 0 0 0 2.35-.632l4.299-7.481a1.731 1.731 0 0 0-.629-2.359L22.12 4.312a1.715 1.715 0 0 0-2.349.632l-4.3 7.48a1.732 1.732 0 0 0 .629 2.36l-1.719 2.992-1.49-.864a3.463 3.463 0 0 1-1.259-4.719l6.02-10.473A3.432 3.432 0 0 1 22.351.456l8.936 5.182a3.464 3.464 0 0 1 1.259 4.72zM12.2 28.48a1.731 1.731 0 0 1-.629-2.36l6.879-11.968a1.715 1.715 0 0 1 2.349-.633 1.732 1.732 0 0 1 .63 2.36l-6.88 11.969a1.715 1.715 0 0 1-2.349.632zm-1.259-4.72a1.716 1.716 0 0 0-2.349.633l-4.3 7.48a1.732 1.732 0 0 0 .629 2.36l5.958 3.455a1.717 1.717 0 0 0 2.35-.632l4.299-7.481a1.732 1.732 0 0 0-.629-2.36l1.72-2.992 1.489.864a3.464 3.464 0 0 1 1.259 4.72l-6.019 10.472a3.432 3.432 0 0 1-4.699 1.265l-8.937-5.183a3.463 3.463 0 0 1-1.259-4.719l6.02-10.473a3.43 3.43 0 0 1 4.698-1.264l1.49.863-1.72 2.992z"/>
</svg>
