<svg xmlns="http://www.w3.org/2000/svg" width="1468" height="973">
    <path fill-rule="evenodd"
          d="M0 2.615c35.866-.172 184.003-4.835 203.073 2.426l528.48 481.149L0 62.455V2.615zm400.03 0h181.053l110.1 350.147 29.36 92.995c3.458 9.726 15.596 29.223 11.01 38.816v-1.618L400.03 2.615zm326.63 0h171.267L735.223 484.573c-2.487 9.452 7.86 28.217 12.234 39.624l34.253 101.082c39.143 115.895 78.297 231.825 117.44 346.821H730.33c1.223-160.276 2.447-321.5 3.67-482.675-35.94-.831-90.407 4.061-129.673 8.895l-130.897 9.704A75317348.86 75317348.86 0 0 0 0 542.796V433.628l549.277 41.241L734 486.999 726.66 2.615zm331.523 0 218.977.808-3.67 2.426-535.82 478.724L1058.183 2.615zm408.594 39.624 1.223 168.2L738.893 486.19l727.884-443.951zM0 203.97l730.33 282.22v.809L0 334.972V203.97zm1468 236.935-729.107 46.094L1468 326.885v114.02zm-731.553 43.668zM1468 535.518V648.73h-1.223L738.893 488.616 1468 535.518zm-741.34-46.093h3.67v.808L0 775.688V644.686l726.66-155.261zM0 972.1v-54.089l731.553-427.778C556.634 651.139 381.663 812.094 206.743 972.1H0zm736.447-481.867zm2.446 0L1468 758.707l-1.223 164.156-11.01-7.277-716.874-425.353zm-7.34 1.618c4.949 9.137-7.619 29.422-11.01 38.815l-30.583 96.23C653.671 742.252 617.372 857.643 581.083 972.1H400.03v.091l331.523-480.34zm6.117 0c179.812 160.367 359.678 320.782 539.49 480.249-73.393.63-146.807.361-220.2.091l-319.29-480.34z"/>
</svg>
